<?xml version="1.0" encoding="utf-8"?>
<!-- Generator: Adobe Illustrator 20.1.0, SVG Export Plug-In . SVG Version: 6.00 Build 0)  -->
<svg version="1.1" id="Layer_1" xmlns="http://www.w3.org/2000/svg" xmlns:xlink="http://www.w3.org/1999/xlink" x="0px" y="0px"
	 viewBox="0 0 24 24" style="enable-background:new 0 0 24 24;" xml:space="preserve">
<style type="text/css">
	.st0{stroke:#FFFFFF;}
	.st1{fill:none;}
</style>
<path class="st0" d="M12,1.8C6.4,1.8,1.8,6.4,1.8,12S6.4,22.2,12,22.2c0.9,0,1.7-0.8,1.7-1.7c0-0.4-0.2-0.8-0.4-1.1
	c-0.3-0.3-0.4-0.7-0.4-1.1c0-0.9,0.8-1.7,1.7-1.7h2c3.1,0,5.7-2.5,5.7-5.7C22.2,5.8,17.6,1.8,12,1.8z M5.8,12C4.8,12,4,11.2,4,10.3
	s0.8-1.7,1.7-1.7s1.7,0.8,1.7,1.7S6.7,12,5.8,12z M9.2,7.5c-0.9,0-1.7-0.8-1.7-1.7S8.2,4,9.2,4s1.7,0.8,1.7,1.7S10.1,7.5,9.2,7.5z
	 M14.8,7.5c-0.9,0-1.7-0.8-1.7-1.7S13.9,4,14.8,4s1.7,0.8,1.7,1.7S15.8,7.5,14.8,7.5z M18.2,12c-0.9,0-1.7-0.8-1.7-1.7
	s0.8-1.7,1.7-1.7c0.9,0,1.7,0.8,1.7,1.7S19.2,12,18.2,12z"/>
<path class="st1" d="M0,0h24v24H0V0z"/>
</svg>
